<?xml version="1.0" encoding="utf-8"?>
<svg fill="#000000" height="800px" width="800px" version="1.1" id="Capa_1" xmlns="http://www.w3.org/2000/svg" viewBox="0 0 489 489">
  <g>
    <path d="M 440.1 422.7 L 412.1 107.4 C 411.5 100.4 405.6 95.1 398.7 95.1 L 341.1 95.1 C 340.3 42.5 297.3 0 244.5 0 C 191.7 0 148.7 42.5 147.9 95.1 L 90.3 95.1 C 83.3 95.1 77.5 100.4 76.9 107.4 L 48.9 422.7 C 48.9 423.1 48.8 423.5 48.8 423.9 C 48.8 459.8 81.7 489 122.2 489 L 366.8 489 C 407.3 489 440.2 459.8 440.2 423.9 C 440.2 423.5 440.2 423.1 440.1 422.7 Z M 244.5 27 C 282.4 27 313.3 57.4 314.1 95.1 L 174.9 95.1 C 175.7 57.4 206.6 27 244.5 27 Z" style="paint-order: fill; fill: rgb(116, 212, 255);"/>
  </g>
</svg>